<svg width="48.000000" height="48.000000" viewBox="0 0 48 48" fill="none" xmlns="http://www.w3.org/2000/svg" xmlns:xlink="http://www.w3.org/1999/xlink">
	<desc>
			Created with Pixso.
	</desc>
	<defs>
		<clipPath id="clip134_28">
			<rect id="brandico:linkedin" width="21.333334" height="20.391840" transform="translate(13.333374 13.333496)" fill="white" fill-opacity="0"/>
		</clipPath>
	</defs>
	<circle id="Ellipse 17" cx="24.000000" cy="24.000000" r="23.500000" stroke="#FFFFFF" stroke-opacity="1.000000" stroke-width="1.000000"/>
	<rect id="brandico:linkedin" width="21.333334" height="20.391840" transform="translate(13.333374 13.333496)" fill="#FFFFFF" fill-opacity="0"/>
	<g clip-path="url(#clip134_28)">
		<path id="Vector" d="M18.17 33.72L18.17 19.96L13.6 19.96L13.6 33.72L18.17 33.72ZM15.89 18.08C17.48 18.08 18.47 17.03 18.47 15.71C18.44 14.36 17.48 13.33 15.92 13.33C14.35 13.33 13.33 14.36 13.33 15.71C13.33 17.03 14.32 18.08 15.86 18.08L15.89 18.08L15.89 18.08ZM20.7 33.72L25.28 33.72L25.28 26.04C25.28 25.63 25.31 25.21 25.43 24.92C25.76 24.1 26.51 23.25 27.77 23.25C29.43 23.25 30.09 24.51 30.09 26.36L30.09 33.72L34.66 33.72L34.66 25.83C34.66 21.6 32.41 19.64 29.4 19.64C26.93 19.64 25.85 21.02 25.25 21.96L25.28 21.96L25.28 19.96L20.7 19.96C20.76 21.25 20.7 33.72 20.7 33.72L20.7 33.72Z" fill="#FFFFFF" fill-opacity="1.000000" fill-rule="nonzero"/>
	</g>
</svg>
