<svg width="24.000000" height="25.000000" viewBox="0 0 24 25" fill="none" xmlns="http://www.w3.org/2000/svg" xmlns:xlink="http://www.w3.org/1999/xlink">
	<desc>
			Created with Pixso.
	</desc>
	<defs/>
	<path id="Vector" d="M23.12 20.92C23.18 21.3 23.15 21.69 23.05 22.06C22.94 22.43 22.76 22.77 22.51 23.06C22.26 23.36 21.95 23.59 21.6 23.75C21.25 23.91 20.87 23.99 20.48 24L2.7 24C2.31 24 1.93 23.91 1.58 23.75C1.23 23.59 0.92 23.36 0.67 23.06C0.42 22.77 0.24 22.43 0.13 22.06C0.03 21.69 0 21.3 0.06 20.92L1.91 8.92C2 8.29 2.32 7.72 2.81 7.3C3.29 6.89 3.91 6.66 4.55 6.66L18.64 6.66C19.27 6.66 19.89 6.89 20.37 7.3C20.86 7.72 21.18 8.29 21.27 8.92L21.27 8.92L23.12 20.92ZM14.26 2.66C14.26 1.95 13.98 1.28 13.48 0.78C12.98 0.28 12.3 0 11.59 0C10.88 0 10.21 0.28 9.71 0.78C9.2 1.28 8.92 1.95 8.92 2.66" stroke="#FFFFFF" stroke-opacity="1.000000" stroke-width="1.500000" stroke-linejoin="round" stroke-linecap="round"/>
</svg>
