<svg width="48.000000" height="48.000000" viewBox="0 0 48 48" fill="none" xmlns="http://www.w3.org/2000/svg" xmlns:xlink="http://www.w3.org/1999/xlink">
	<desc>
			Created with Pixso.
	</desc>
	<defs>
		<clipPath id="clip134_20">
			<rect id="ant-design:twitter-outlined" width="21.333334" height="21.333334" transform="translate(13.333313 13.333496)" fill="white" fill-opacity="0"/>
		</clipPath>
	</defs>
	<circle id="Ellipse 15" cx="24.000000" cy="24.000000" r="23.500000" stroke="#FFFFFF" stroke-opacity="1.000000" stroke-width="1.000000"/>
	<rect id="ant-design:twitter-outlined" width="21.333334" height="21.333334" transform="translate(13.333313 13.333496)" fill="#FFFFFF" fill-opacity="0"/>
	<g clip-path="url(#clip134_20)">
		<path id="Vector" d="M32.66 18.63C32.02 18.9 31.33 19.1 30.62 19.18C31.36 18.74 31.91 18.04 32.18 17.22C31.48 17.63 30.72 17.92 29.92 18.08C29.59 17.72 29.19 17.44 28.74 17.24C28.3 17.05 27.81 16.95 27.33 16.95C25.36 16.95 23.78 18.55 23.78 20.51C23.78 20.78 23.81 21.06 23.86 21.32C20.92 21.17 18.29 19.76 16.54 17.6C16.22 18.15 16.05 18.77 16.06 19.4C16.06 20.63 16.68 21.72 17.64 22.36C17.08 22.34 16.52 22.18 16.03 21.91L16.03 21.95C16.03 23.68 17.25 25.11 18.88 25.44C18.57 25.52 18.26 25.56 17.95 25.56C17.71 25.56 17.5 25.53 17.27 25.5C17.72 26.91 19.03 27.93 20.6 27.97C19.37 28.92 17.85 29.49 16.18 29.49C15.89 29.49 15.61 29.48 15.33 29.44C16.9 30.45 18.77 31.04 20.78 31.04C27.32 31.04 30.89 25.62 30.89 20.93C30.89 20.77 30.89 20.62 30.88 20.46C31.57 19.96 32.18 19.33 32.66 18.63Z" fill="#FFFFFF" fill-opacity="1.000000" fill-rule="nonzero"/>
	</g>
</svg>
